<svg width="650" height="234" viewBox="0 0 650 234" fill="none" xmlns="http://www.w3.org/2000/svg">
<path fill-rule="evenodd" clip-rule="evenodd" d="M41.5547 117.957L108.499 106.087C109.571 105.573 113.384 101.482 114.511 100.354C127.354 87.497 148.032 66.0263 160.138 54.783C162.601 55.8127 197.931 91.7968 204.151 98.2533C206.85 101.064 206.544 100.633 211.665 100.758C230.645 101.231 252.895 105.308 266.698 105.253C264.89 102.289 235.682 73.6378 230.923 69.0041C226.623 64.8157 227.876 64.607 227.876 54.7413L227.848 0.570391L192.991 0.528646L192.949 31.6146L160.875 -0.00012207C158.19 1.34963 148.561 11.4797 145.764 14.2905L100.888 58.8044C97.4093 62.2275 43.0436 115.577 41.5547 117.971V117.957Z" fill="#E94429"/>
<path fill-rule="evenodd" clip-rule="evenodd" d="M0.125234 175.579C5.38508 174.16 11.7999 171.238 17.2128 169.345C104.306 138.858 181.298 124.943 274.987 127.42L318.193 129.535C268.865 111.083 213.664 107.187 156.404 110.513C113.142 113.032 41.1187 124.929 0 137.118L0.11132 175.579H0.125234Z" fill="#E94429"/>
<path fill-rule="evenodd" clip-rule="evenodd" d="M217.367 232.389C217.52 226.67 216.407 203.39 217.84 200.162C219.747 200.691 219.162 200.023 219.733 203.098L222.001 215.803C223.017 221.382 223.977 227.074 225.034 232.445L241.899 232.236L246.435 206.98C246.644 205.756 246.853 203.947 247.131 202.764C247.841 199.703 247.201 200.454 249.511 200.232C251.64 203.251 249.775 226.28 250.332 232.236L270.077 232.194L263.078 165.305L240.299 165.403C239.061 172.471 235.957 186.929 233.634 193.219L227.65 165.319L204.871 165.375L197.357 232.431L217.395 232.403L217.367 232.389Z" fill="#E94429"/>
<path fill-rule="evenodd" clip-rule="evenodd" d="M88.8781 182.044L88.9755 215.774L80.4735 215.816C81.044 209.916 82.4216 203.556 83.3678 197.754C83.8687 194.665 84.3557 191.771 84.8289 188.751C86.0951 180.847 85.1489 182.044 88.8781 182.058V182.044ZM53.2141 233.056L115.219 233.042L115.205 216.442L109.667 216.15L109.625 165.151L69.9816 165.36L58.4044 216.15L53.2002 216.358V233.042L53.2141 233.056Z" fill="#E94429"/>
<path fill-rule="evenodd" clip-rule="evenodd" d="M552.905 215.826C552.821 215.672 552.738 215.45 552.696 215.325L552.223 196.943C552.223 181.609 550.706 182.277 556.175 182.277H556.801C559.709 182.277 560.474 182.04 560.474 185.157V213.084C560.474 216.507 558.498 217.175 552.905 215.839V215.826ZM531.531 226.735C532.018 231.202 535.33 233.024 540.019 233.122C544.945 233.219 550.01 233.108 554.95 233.108C562.728 233.108 577.604 235.39 580.428 229.267C581.736 226.457 581.917 177.072 581.096 171.506C579.788 162.74 566.486 165.259 557.427 165.259C547.283 165.259 534.982 163.38 532.227 169.266C531.072 171.743 530.919 221.113 531.531 226.735Z" fill="#E94429"/>
<path fill-rule="evenodd" clip-rule="evenodd" d="M152.194 185.103C152.194 179.871 159.805 182.668 159.93 182.793C160.918 183.781 161.238 213.712 159.903 215.229C158.803 216.3 160.612 215.688 157.621 216.105C152.082 216.885 152.194 215.076 152.194 213.044V185.117V185.103ZM180.886 227.933C181.61 225.581 181.513 172.148 180.789 170.005C178.326 162.63 164.105 165.204 156.382 165.204C151.415 165.204 146.447 165.191 141.465 165.191C136.567 165.177 133.2 166.151 131.92 169.936C131.057 172.496 131.029 225.665 131.864 228.239C134.202 235.517 148.381 233.054 156.382 233.054C164.522 233.054 178.535 235.6 180.886 227.933Z" fill="#E94429"/>
<path fill-rule="evenodd" clip-rule="evenodd" d="M618.677 191.806C620.945 176.736 620.945 184.153 620.723 164.992H599.92L600.254 232.8L620.222 232.772C620.82 223.031 620.5 225.007 624.188 217.034L628.891 206.848C629.962 204.691 629.42 204.928 631.298 204.33L631.743 207.794C631.646 208.657 631.382 209.896 631.229 210.953C629.879 219.845 629.197 223.616 629.74 233.273L650 233.259L649.735 164.769L629.712 164.825C629.113 168.68 630.074 170.628 628.654 174.315L622.532 188.661C621.599 190.832 620.973 193.935 618.9 195.257L618.705 191.806H618.677Z" fill="#E94429"/>
<path fill-rule="evenodd" clip-rule="evenodd" d="M484.474 182.243L493.463 182.145L493.185 195.545L484.446 195.364L484.474 182.243ZM484.321 210.838C502.215 210.337 514.586 214.567 514.572 200.123C514.558 161.704 517.619 165.113 493.463 165.308C484.182 165.392 473.008 164.918 463.782 165.642L463.81 233.088L484.14 233.06L484.307 210.824L484.321 210.838Z" fill="#E94429"/>
<path fill-rule="evenodd" clip-rule="evenodd" d="M384.913 181.971C387.654 173.747 388.475 176.127 388.336 165.329C382.784 164.285 368.354 165.051 361.87 165.051C351.962 165.051 343.947 162.323 343.947 173.859V224.76C343.947 234.904 353.799 232.468 362.496 232.468C370.9 232.468 379.597 232.691 387.974 232.413L387.932 216.605L364.583 216.369L364.597 181.818L384.913 181.971Z" fill="#E94429"/>
<path fill-rule="evenodd" clip-rule="evenodd" d="M445.096 182.073C448.505 173.822 449.396 177.955 449.076 165.682L401.139 165.904L401.167 182.115L413.982 182.24L414.052 233.044L434.938 232.766L435.189 182.199L445.11 182.073H445.096Z" fill="#E94429"/>
<path fill-rule="evenodd" clip-rule="evenodd" d="M637.701 157.196C641.194 149.473 641.166 155.081 640.887 141.82L609.648 141.876L609.885 157.071L637.701 157.196Z" fill="#E94429"/>
</svg>
